<svg version="1" xmlns="http://www.w3.org/2000/svg" width="1401.333" height="1401.333" viewBox="0 0 1051.000000 1051.000000"><path d="M243.9 1.2c-.1.7 0 64.4 0 141.5l.2 140.3h-73.6c-40.4 0-73.5-.2-73.5-.5s15.2-21.8 33.7-47.8l33.7-47.2.1-16.8c.1-9.2-.2-17.2-.5-17.8-.4-.6-1.5.2-2.5 1.8-1 1.5-4.1 5.9-7 9.8-5.2 7.1-18.5 25.3-21.1 29-1.4 2.1-13.1 18-18.2 25C76.8 270.8 51 307.3 51 309.3v2.4l95.3.1c52.3 0 95.8.1 96.5.1 1 .1 1.2 3.2 1 13.8l-.3 13.8h-193l-.3 16.7L50 373h194v179.9l13 .3 13 .3V15.1l-2.9-2c-1.6-1.2-3.2-2.1-3.5-2.1-.4 0-2.3-1-4.4-2.3-10-6.3-15.2-8.8-15.3-7.5zM440.8 5.5c-.2.2-8.2.6-17.8.9-9.6.4-18.8.9-20.3 1.1-1.5.2-6 .6-10 1s-11.2 1.3-16.2 2c-4.9.8-10.8 1.7-13 2-5.8.8-9.6 1.5-12.5 2-1.4.3-3.6.7-5 1-9.3 1.8-15.5 3.2-31 7-9.6 2.5-18.5 4.7-19.7 5.1l-2.2.6v262.4c0 201.7.3 262.4 1.2 262.5 1.4.1 16.4-.2 21.7-.5l3.5-.1v-179h85c79.7 0 92.3.3 98.2 2.6 1.3.5 2.3.7 2.3.5 0-.3 3.4.9 7.5 2.5 20.1 7.7 36.9 20.1 45.9 33.8 8.6 13.2 11 21.6 11.1 38.6 0 14.4-.7 18.8-4.5 30-2.5 7.6-9.2 21.4-11.9 24.7-.6.7-4.5 5.8-8.7 11.3-9.3 12.1-25.3 31-40.7 47.9-4 4.4-8.2 9.1-9.5 10.5-3.4 3.8-20 21.6-25 27-2.4 2.5-10.5 11.1-18 19.1-7.5 7.9-14.6 15.4-15.7 16.6-1.1 1.2-4.7 4.9-8 8.3l-5.9 6.1h443.9l11.2-14c7.7-9.7 10.7-14 9.5-14-.9-.1-91-.1-200.2-.1l-198.5.1 35.2-34.8c41.5-41 53.9-55.2 67.4-77.5 9.9-16.2 17.6-35.1 19.5-47.8 1.1-6.7 1.1-23.7.1-30.3-2.1-13.8-11-33-21.2-45.6-4.8-5.9-18.5-19.2-24.7-23.8-11.1-8.3-31.2-18.3-42-20.8-1-.2-2.6-.6-3.5-.8-7.2-1.7-11.7-2.5-17.3-3.2-3.6-.4-45.6-.8-93.5-1-47.8-.1-87.2-.2-87.5-.3-.3 0-.5-6.2-.5-13.6 0-12.8.1-13.5 2-13.6 1.1 0 39.8-.1 86-.1 73.1-.1 99.1.3 106.2 1.6 1 .2 4.1.7 6.8 1.1 2.8.5 5.2.9 5.5 1 .3.1 2.3.5 4.5 1 6.7 1.3 20.6 6.5 29 10.7 7.1 3.6 21 12.4 24.2 15.2.6.6 2.6 2.2 4.5 3.5 6.3 4.7 22.3 21.7 27.5 29.2 14 20.4 20.9 41.2 22.9 69.4.4 4.9.7 9.1.8 9.2.5.6 8.3-14.7 9.9-19.2 1.6-4.4 2.3-7.1 4.3-16 .7-2.8.6-21.6 0-25.6-.3-1.9-.8-5-1-6.9-.8-5.7-4.6-17.1-7.8-23.5-4.6-9.2-11.4-18.1-21.3-28.1-23.4-23.6-49.4-38.8-79.2-46.3-7.4-1.9-9.6-2.3-20.3-3.7-4.5-.6-72.3-1.3-159-1.7l-45.5-.2v-239l6.5-1.2c3.6-.7 7.7-1.5 9.1-1.8 5.1-1 26.5-4.4 31.4-5 2.8-.4 6.1-.8 7.5-1.1 1.4-.2 5.2-.6 8.6-1 3.3-.3 7.4-.7 9-.9 14.6-1.9 53.2-2.5 71.9-1.2 25 1.7 47.4 5.9 69 12.7 73.3 23.3 144 84.8 186.3 162 19.7 36.1 30.1 63.4 40.2 106 8.4 35.2 16.9 51.1 30.6 57.1 4.6 2.1 15 4.4 24.4 5.3 3 .4 8.7 1.1 12.5 1.6 3.9.5 8.6 1.2 10.5 1.4 5.8.8 10.2 1.7 17 3.9 20.9 6.5 31.2 18.1 30.5 34.5-.2 3.3-.8 7.7-1.5 9.8-1.6 5.1-7.4 16.6-10.1 20.3l-2.1 2.8 4.1 8.1c8.2 16.5 19.1 30.4 29.1 37.2 5.7 3.9 5.8 4 5.4 8.2-1 9.6-4.3 16.8-10.4 22.5l-3.1 2.9 2.5 5.6c1.4 3.1 4.2 9.4 6.4 13.9 2.1 4.6 4.9 11 6.2 14.2 1.8 4.3 2.8 5.6 3.9 5.2.9-.4 5-1.1 9.1-1.7 12.5-1.8 23.8 2 29.7 10.1l2.2 2.9-2.5 6.2c-6.7 16.6-4.9 34.9 5.3 54 13.7 25.3 16.9 34.7 16 45.5-.9 10-4.6 18.1-13.6 30-6.6 8.7-20.2 22.6-30.6 31.2-4.9 4.2-10 8.3-11.2 9.3-1.1 1-5.8 4.5-10.3 7.7-8.5 6-9.9 6.9-33.6 23.6-24.6 17.2-48.4 36.8-48.4 39.8 0 .8 4.5 7.1 8.5 12 1.8 2.4 10.8 17.7 12.7 21.9 5.7 12.5 8.4 20 11.2 31.5 4.2 17.1 4.5 38.1 1 59.5-1 6-7.1 25.1-10.9 34.3-3.7 8.7-12.8 23.9-17.5 29.3-1.4 1.6-4.3 4.4-6.5 6.3-3.7 3.2-3.8 3.4-1.2 2.7 20.8-5.2 46.1-25.1 57.2-45.1 5.2-9.3 7.5-15.4 10.1-27.5 2-9 2.2-12.7 1.9-26-.3-15.9-.5-17.6-3.1-27-6.4-23.3-20.5-43.1-41.7-58.2-1.6-1.2-1.3-1.9 4.1-8.3 3.3-3.9 9-9.7 12.7-13 12.3-10.9 15.4-13.2 58-44 22.1-16 32.7-24.7 44.8-36.4 22.9-22.2 31.7-38.2 31.7-57 0-11.1-4.1-23.4-13.1-39.3-13-23.3-16-31.9-15.4-44.9.4-7.4 3.7-17.7 6.3-19.3.8-.4.7-1.9-.3-4.5-5.5-15.7-18.5-24.1-40-25.7-4.4-.4-8.3-.9-8.6-1.3-.3-.3-2.7-4.6-5.3-9.5l-4.6-9 2.3-2.5c7.4-8 10.6-16.7 11.4-30.2.5-9.2.5-9.7-1.6-10.4-2.8-.9-11.7-7.9-16.4-12.9-4.8-5.2-11.7-15.5-15.2-22.6l-2.6-5.5 4.4-7.8c17.4-30.4 7.8-59.6-23.7-72.1-8.8-3.5-16.2-5-39.3-8-23.8-3.1-23.6-3.1-31-6.7-7.5-3.6-12.3-8.8-16.8-18.4-3.2-6.6-9.6-26.3-11.5-35-8.2-37.9-19-66-38.8-100.5-35.1-61.2-83-113.2-134-145.3-11.4-7.2-29.8-16.6-42.2-21.5-13.9-5.6-37.3-12.3-51-14.8-2.5-.4-4.7-.8-5-.9-.3 0-2.7-.4-5.3-.9-2.7-.4-5.8-.9-6.9-1.1-1.2-.3-4.9-.7-8.2-1-3.4-.4-7.9-.8-10.1-1-2.2-.3-9.6-.7-16.5-1-6.9-.4-14.2-.8-16.2-.9-2.1-.2-3.9-.2-4-.1z"/><path d="M379 693.7c-7.3 6.1-13.7 11.6-14.3 12.2-.7.7 64.9.9 210.5.8 194.2-.2 211.5-.1 210.4 1.4-.9 1.3-6.6 7.7-17.1 19.3-.6.6-5.1 5.6-10 11.1s-9.1 10.2-9.5 10.5c-.3.3-3.9 4.3-8 9-4.1 4.6-8.4 9.4-9.5 10.6-1.1 1.1-4 4.3-6.4 7-5.3 6-15.5 17.4-28.1 31.4-5.2 5.8-10.1 11.2-10.8 12.1-1.1 1.5 0 1.6 13 1.4 29-.5 48.8 6 69.3 22.6 12.4 10 19.8 20.6 27.6 39.4 2.1 5 4.7 17.6 5.6 26.5 2.2 21.9-.5 44.8-7.1 61.1-9.6 23.9-32.4 43.1-60.9 51.3-25 7.2-56.9 5.1-82.6-5.6-11.7-4.9-18.8-9.4-26.6-17.2-10.1-9.9-21.5-28.3-21.5-34.6 0-3.6-1.9-3.1-9.5 2.5-4.1 3.1-8 5.3-8.6 5-.5-.4-1.6-.1-2.4.5-4.2 3.5 12 28.2 29.9 45.3 6.9 6.6 15 12.7 22.4 16.9 11.8 6.6 34.6 13.9 48.5 15.5 12.4 1.4 36.2.7 45.3-1.2 13.8-3 25.3-6.9 35.9-12.1 21.2-10.5 44.6-31.3 54.4-48.4 6.9-11.9 12-26.3 14.1-39 .6-4.1 1.3-8.6 1.6-10 .5-3.3.5-28.8 0-32-.3-1.4-.7-4.7-1.1-7.4-.9-7.7-3.3-17.1-6.5-25.8-9.2-25.1-25.7-43.4-51.3-56.8-9.8-5.1-33.4-14-37.3-14-.8 0-1.4-.3-1.4-.6 0-.4 3.7-4.8 8.3-9.8 4.6-5 9.7-10.6 11.3-12.5 2.9-3.3 4.4-5 11.3-12.6 2-2.2 7.4-8.3 12.1-13.5 4.7-5.2 8.7-9.7 9-10 .3-.3 6.2-6.8 13-14.5 6.9-7.7 14.4-16 16.7-18.5 2.3-2.5 5-5.4 6-6.6 7.7-8.8 15.1-17 16.6-18.3.9-.8 1.7-2 1.7-2.6 0-.7-71.7-1-225.4-1H392.3L379 693.7z"/></svg>